<?xml version="1.0" encoding="utf-8"?>
<!-- Generator: Adobe Illustrator 19.1.0, SVG Export Plug-In . SVG Version: 6.00 Build 0)  -->
<!DOCTYPE svg PUBLIC "-//W3C//DTD SVG 1.1//EN" "http://www.w3.org/Graphics/SVG/1.1/DTD/svg11.dtd">
<svg version="1.1" xmlns="http://www.w3.org/2000/svg" xmlns:xlink="http://www.w3.org/1999/xlink" x="0px" y="0px" width="378px"
	 height="152px" viewBox="0 0 378 152" style="enable-background:new 0 0 378 152;" xml:space="preserve">
<style type="text/css">
	.st0{fill:#302F27;}
	.st1{fill:#FFFFFF;}
	.st2{fill:#F3F3F2;}
	.st3{fill:#FF9400;}
	.st4{fill:#ED7B00;}
	.st5{fill:none;}
</style>
<g id="Layer_1">
	<g>
		<polygon class="st3" points="56,60 36,60 36,40 24,52 24,132 76,80 56,80 		"/>
		<polygon class="st3" points="56,20 36,40 56,40 		"/>
		<polygon class="st4" points="96,60 76,60 76,80 		"/>
	</g>
	<g>
		<polygon class="st3" points="130.5,52 114.5,52 114.5,32 105,32 105,80 114.5,80 114.5,60 130.5,60 130.5,80 140,80 140,32 
			130.5,32 		"/>
		<path class="st3" d="M159.8,46C151,46,145,52,145,63c0,13.7,7.5,17.5,15.5,17.5c6.1,0,9.3-1.8,12.8-5.3l-5-5c-2.1,2.1-4.1,3-7.8,3
			c-4.7,0-7.2-2.9-7.2-7.8h21.2V62C174.5,52.7,169.1,46,159.8,46z M153.3,60c0.1-1.5,0.3-2.4,0.8-3.6c0.9-2,2.8-3.4,5.7-3.4
			c2.8,0,4.7,1.4,5.6,3.4c0.5,1.2,0.9,2.1,0.9,3.6H153.3z"/>
		<path class="st3" d="M192.1,46c-5.6,0-8.7,0.9-12,4.5l5.2,5.3c1.7-2,3.2-2.7,6.4-2.7c4.5,0,6.3,1.6,6.3,5.3V60h-8
			c-7.8,0-11.5,4.4-11.5,9.8c0,3,1,5.7,2.8,7.6c2,2,4.7,3,8.5,3c3.9,0,6.2-1,8.2-3.2V80h8.5V57.8C206.5,49.9,201.5,46,192.1,46z
			 M196.7,71.8c-1.5,1.4-3,1.6-5.3,1.6c-3.3,0-4.9-1.6-4.9-3.9c0-2.4,1.7-4.1,4.7-4.1h6.7v2C198,69.7,197.6,71,196.7,71.8z"/>
		<path class="st3" d="M272.9,45.5c-3,0-5.6,1.2-7.9,3.5V32h-8.5v48h8.5V59c0-4.4,2.6-6,5.3-6c2.7,0,5.3,1.5,5.3,6v21h8.5V57.5
			C284,50.4,280.3,45.5,272.9,45.5z"/>
		<rect x="290.5" y="46.5" class="st3" width="8.5" height="33.5"/>
		<rect x="290.5" y="32" class="st3" width="8.5" height="8.5"/>
		<path class="st3" d="M243,36h-8.5v10.5H228V53h6.5v17.5c0,4.8,2.5,9.5,10,9.5h5v-7H246c-2.1,0-3-1-3-3.5V53h6.5v-6.5H243V36z"/>
		<path class="st3" d="M310.5,41.5v5H304V53h6.5v27h8.5V53h6.5v-6.5H319v-4c0-2.5,0.9-3.5,3-3.5h3.5v-7h-5
			C313,32,310.5,36.7,310.5,41.5z"/>
		<path class="st3" d="M221.5,69.5V32H213v38.5c0,4.8,2.5,9.5,10,9.5h5v-7h-3.5C222.4,73,221.5,72,221.5,69.5z"/>
		<path class="st3" d="M353,46.5l-7.5,22.1L337,46.5h-8L341,80l-1.4,4c-0.8,2.5-1.8,3-4.2,3h-1.9v7.5h3.3c2.8,0,5.3-0.6,7.3-2.5
			c1-1,1.8-2.4,2.5-4.3L349,81l12.5-34.5H353z"/>
	</g>
</g>
<g id="Layer_2">
</g>
</svg>
