<?xml version="1.0" encoding="utf-8"?>
<!-- Generator: Adobe Illustrator 19.2.1, SVG Export Plug-In . SVG Version: 6.00 Build 0)  -->
<svg version="1.1" id="Layer_1" xmlns="http://www.w3.org/2000/svg" xmlns:xlink="http://www.w3.org/1999/xlink" x="0px" y="0px"
	 viewBox="0 0 305 120" style="enable-background:new 0 0 305 120;" xml:space="preserve">
<style type="text/css">
	.st0{fill:#2D3C49;}
	.st1{fill:#02B3E4;}
</style>
<g id="wordmark">
	<g>
		<path class="st0" d="M113,62.9c0,3.3-2.8,6.1-6.5,6.1s-6.5-2.7-6.5-6.1l0-11.9h-2l0,12c0,4.3,3.3,8,8.5,8s8.5-3.8,8.5-8l0-12h-2
			V62.9z M134.3,51l-6.3,0v20h6.3c5.8,0,9.7-3.8,9.7-10C144,54.9,140.1,51,134.3,51z M134.1,69H130V53h4.1c4.7,0,7.9,3.3,7.9,8
			C142,66,138.9,69,134.1,69z M190,69c-4.6,0-7.9-3.8-7.9-8.4c0-4.6,3.3-8.1,7.9-8.1c3.6,0,5.9,2.1,5.9,2.1l1-1.4c0,0-2.3-2.5-7-2.5
			c-5.5,0-9.8,4.3-9.8,9.9c0,5.6,4.1,10.4,9.9,10.4c4.8,0,7.4-3.3,7.4-3.3l-1.1-1.3C196.2,66.4,193.9,69,190,69z M210,71h2V51h-2V71
			z M223,53h7v18h2V53h7v-2h-16V53z M262.2,51l-6.2,9H256l-6.3-9h-2.2l7.5,11.1V71h2v-8.9l7.4-11.1H262.2z M160.9,51L153,71h2.1
			l2.1-5.7l8.8-1.8l2.8,7.5h2.1L163,51C163,51,160.9,51,160.9,51z M158.1,63.1l3.9-9.4h0.1l3.3,8L158.1,63.1z"/>
	</g>
</g>
<path id="mark" class="st1" d="M52.3,40L39,47.7l0,17.6l0,0C39,73.4,45.5,80,53.6,80c2.7,0,5.2-0.7,7.4-1.9l0,0l10.8-6.2
	C76.1,69.6,79,65.2,79,60l0-18.4l0,0l0,0l-2.6-1.5L65,46.2l0,0l0,0l0,19.2c0,0.8-0.1,1.6-0.2,2.4c-0.2,0.8-0.4,1.5-0.7,2.2
	c-0.1,0.2-0.2,0.4-0.3,0.6c-0.4,0-2.9-0.9-4.2-1.8c-0.6-0.4-1.1-0.8-1.6-1.3c-0.5-0.5-0.9-1-1.3-1.6c-0.4-0.6-1.8-3.2-1.8-5.8V41.5
	L52.3,40z M58.8,76.2c-0.7,0.3-1.7,0.7-2.5,0.9c-0.8,0.2-1.5,0.2-2.3,0.2s-1.6-0.1-2.4-0.3c-0.8-0.2-1.5-0.4-2.2-0.7
	c-0.7-0.3-1.4-0.7-2-1.1c-1.7-1.2-2.5-2.2-3.2-3.3c-0.4-0.6-0.8-1.3-1.1-2c-0.3-0.7-0.5-1.5-0.7-2.3C42,66.9,42,66.1,42,65.3V49.2
	l10-6.1v16.9c0,6.4,4.7,11.8,10.7,13.1c-0.2,0.3-0.4,0.6-0.7,0.8C60.9,75,60,75.7,58.8,76.2z M75.8,62.2c-0.1,0.7-0.4,1.4-0.6,2
	c-0.3,0.6-0.6,1.2-1,1.8c-0.4,0.6-1.6,2.1-3.2,3s-3.1,1.2-4,1.4c0.6-1.6,1-3.2,1-5l0,0V47.7l0,0l8-4.6L76,60
	C76,60.8,76,61.5,75.8,62.2z"/>
</svg>
